<?xml version="1.0" encoding="UTF-8" standalone="no"?>
<svg width="190" xmlns="http://www.w3.org/2000/svg" height="190">
 <g id="layer1">
  <g id="svg_2" fill="#003f7f">
   <text id="svg_3" xml:space="preserve" transform="matrix(1.0353 0 0 1.0114 -.35294 -2.0875)" font-size="40px" y="96.697051" x="-35.24916" font-family="Kochi Gothic"/>
   <path id="svg_4" stroke-linejoin="round" d="m93.96 14.977c-47.382 0-85.96 37.687-85.96 83.974 0 46.288 38.578 83.974 85.96 83.974s85.96-37.687 85.96-83.974c0-20.011-6.9317-37.907-18.703-52.567l-8.0937 9.3712c10.262 12.343 14.278 26.047 14.278 43.196 0 39.667-32.837 71.726-73.442 71.726-40.605-0.000031-73.442-32.06-73.442-71.726 0-39.667 32.837-71.745 73.442-71.745 12.867 0 22.49 1.8069 32.997 7.4752l7.6897-9.8648c-12.301-6.6367-25.672-9.8393-40.686-9.8393z" fill-rule="evenodd" stroke-width="20.2"/>
   <path id="svg_5" d="m62.145 87.907c3.4662 0.000099 6.0882 2.7785 7.8659 8.3354 3.5551 10.419 6.0882 15.629 7.5992 15.629 1.1554 0.000053 2.3552-0.86819 3.5997-2.6048 24.975-39.072 48.084-70.677 69.326-94.815 5.5104-6.2513 14.265-9.3771 26.264-9.3773 2.844 0.000172 4.7549 0.26064 5.7328 0.78143 0.97751 0.52113 1.4663 1.1723 1.4665 1.9536-0.000214 1.2157-1.4667 3.6035-4.3996 7.1632-34.308 40.288-66.127 82.833-95.457 127.64-2.0443 3.1258-6.2217 4.6887-12.532 4.6886-6.3994 0.000031-10.177-0.26047-11.332-0.78148-3.022-1.3024-6.5772-7.9446-10.666-19.927-4.6218-13.284-6.9327-21.62-6.9327-25.006-0.00005-3.6466 3.1108-7.1631 9.3324-10.549 3.8218-2.0838 7.1992-3.1256 10.132-3.1258"/>
  </g>
 </g>
</svg>
