<svg xmlns="http://www.w3.org/2000/svg" width="136" height="22" viewBox="0 0 136 22"><path fill="#444445" d="M7 8.3c0-1.3.2-2.4.6-3.2s.9-1.6 1.6-2 1.5-.8 2.4-1c.9-.2 2.1-.3 3.4-.3h6.6c1.8 0 3.3.1 4.4.3 1 .2 1.8.5 2.4 1 .6.5 1 1.2 1.2 2 .2.8.2 1.8.2 3.1h-5.3V8c0-.6-.2-1-.6-1.3-.4-.3-1-.4-1.9-.4h-5.8c-1.4 0-2.4.3-2.8.8s-.7 1.6-.7 2.8v2c0 1.4.2 2.3.6 2.8.5.6 1.3.7 2.5.7h6.1c.6 0 .7 0 1.1-.1.4-.1.7-.2.9-.3.3-.2.4-.4.6-.7.1-.4.2-.7.2-1.6h5.5v2c0 .8-.1 1.6-.3 2.2-.2.6-.6 1.2-1 1.7-.5.5-1.2.8-2 1.1-.8.3-2 .4-3.3.4h-8.4c-1.3 0-2.5-.1-3.4-.3-.9-.2-1.7-.6-2.4-1s-1.2-1-1.6-1.8c-.6-.9-.8-1.9-.8-3.2V8.3zm41.5-6.5h-7.1S31.7 20 31.7 20.1h6.4l1.8-3.7H50l1.8 3.7h6.4L48.5 1.8zm-6.7 11L45 6.1l3.3 6.7h-6.5zm40.7-1.7c.4-.6.6-1.5.6-2.7V7.1c0-.8-.1-1.6-.3-2.2-.2-.6-.5-1.2-.8-1.7-.4-.6-1-.8-1.6-1.1-.6-.3-1.6-.4-2.6-.4H61.1V20h5.5v-4.6h8.8c.8 0 1.5.2 1.7.5.3.4.5 1 .5 1.9v2.1h5.5v-3.3c0-.7 0-1.4-.2-1.8-.2-.6-.3-.9-.6-1.2-.3-.3-.5-.5-.9-.6-.3-.2-.7-.3-1.1-.4v-.3c1-.1 1.8-.6 2.2-1.2zm-4.9-2.5c0 .7-.2 1.6-.4 1.8-.3.3-.8.5-1.5.5h-9V6.4h8.6c.9 0 1.5.1 1.9.4.4.2.5.6.5 1.4v.4zm40.5-5.3c-1.1-1-3-1.5-5.7-1.5H95.9v18.3h16.5c2.7 0 4.6-.5 5.7-1.5 1.1-.9 1.6-2.6 1.6-4.9V8.1c.1-2.2-.5-3.9-1.6-4.8zm-3.8 9.2c0 1.1-.3 1.9-.7 2.4-.5.4-1.4.6-2.5.6h-9.6V6.4h9.6c1.2 0 2.1.2 2.5.6.5.4.7 1.1.7 2.4v3.1zM86.8 1.8h5.5v4.6h-5.5zm0 6.4h5.5v11.9h-5.5zm35.1-4.7c0-.6.1-1.2.4-1.7.3-.5.7-1 1.2-1.3.5-.3 1.1-.5 1.7-.5.6 0 1.1.2 1.7.5.5.3.9.7 1.2 1.3.3.5.4 1.1.4 1.7 0 .6-.1 1.2-.4 1.7-.3.5-.7 1-1.2 1.3-.5.3-1.1.5-1.6.5-.6 0-1.1-.2-1.7-.5-.5-.3-.9-.7-1.2-1.3-.3-.5-.5-1.1-.5-1.7zm6 0c0-.5-.1-1-.3-1.4-.2-.4-.6-.8-1-1.1-.4-.3-.9-.4-1.4-.4-.5 0-.9.1-1.4.4-.4.3-.8.6-1 1-.2.4-.4.9-.4 1.5 0 .5.1 1 .4 1.5.2.4.6.8 1 1.1.4.3.9.4 1.4.4.5 0 1-.1 1.4-.4s.8-.6 1-1.1.3-1 .3-1.5zm-3.3.3v1.6h-.7v-4h1.3c.5 0 .8.1 1.1.3.3.2.4.5.4.9 0 .3-.2.6-.5.8.2.1.3.2.4.4s.1.4.1.6v.5c0 .1 0 .2.1.3v.1h-.8c0-.1-.1-.4-.1-.9 0-.2-.1-.4-.2-.5-.1-.1-.3-.2-.5-.2h-.6zm0-.6h.6c.2 0 .4 0 .6-.1.1-.1.2-.2.2-.4s-.1-.4-.2-.5c-.1-.1-.3-.1-.6-.1h-.7v1.1z"/></svg>