<svg width="27" height="23" viewBox="0 0 27 23" xmlns="http://www.w3.org/2000/svg"><g fill="none" fill-rule="evenodd"><path d="M22.197 19.615a1.7 1.7 0 00-1.696 1.693A1.7 1.7 0 0022.197 23c.932 0 1.695-.762 1.695-1.692a1.7 1.7 0 00-1.695-1.693zm-14.414 0a1.7 1.7 0 00-1.696 1.693A1.7 1.7 0 007.783 23c.934 0 1.696-.762 1.696-1.692 0-.931-.762-1.693-1.696-1.693z" fill="#111" fill-rule="nonzero"/><path d="M1 1h1.272c.7 0 1.482.796 1.74 1.644l2.915 9.676c.257.849 1.224 1.474 2.148 1.359l14.833-1.842c.924-.116 1.68-.92 1.68-1.803V5.217c0-.884-.763-1.808-1.696-1.808h-19.5m19.5 14.348H7.397c-.955 0-1.513-.586-1.24-1.426l1.022-2.639" stroke="#111" stroke-width="1.8" stroke-linecap="round"/></g></svg>