<svg xmlns="http://www.w3.org/2000/svg" width="28" height="28" viewBox="0 0 28 28" fill="none"><path d="M27.5 14c0 7.456-6.044 13.5-13.5 13.5S.5 21.456.5 14 6.544.5 14 .5 27.5 6.544 27.5 14z" stroke="#00ADFF"></path><path fill-rule="evenodd" clip-rule="evenodd" d="M15.062 7.4v1.55c2.392.647 4.138 2.664 4.138 5.05 0 2.386-1.746 4.403-4.138 5.05v1.55c3.319-.684 5.794-3.379 5.794-6.6 0-3.221-2.475-5.916-5.794-6.6zm2.107 6.868c0-1.393-.86-2.59-2.107-3.172v6.336c1.247-.574 2.107-1.77 2.107-3.164zM6.634 11.723v4.554H9.91l4.097 3.796V7.927l-4.097 3.796H6.634z" fill="#00ADFF"></path></svg>